<?xml version="1.0" encoding="utf-8"?>
<svg xmlns="http://www.w3.org/2000/svg" version="1.1" width="1000" height="500">
<title> Mon exemple LOGO</title>
<desc>Affichage d'une figure LOGO.</desc>
<line x1="500.000000" y1="250.000000" x2="524.904867" y2="252.178894" stroke="red" />
<line x1="524.904867" y1="252.178894" x2="544.055979" y2="236.109204" stroke="red" />
<line x1="544.055979" y1="236.109204" x2="546.234872" y2="211.204336" stroke="red" />
<line x1="546.234872" y1="211.204336" x2="530.165182" y2="192.053225" stroke="red" />
<line x1="530.165182" y1="192.053225" x2="505.260315" y2="189.874331" stroke="red" />
<line x1="505.260315" y1="189.874331" x2="486.109203" y2="205.944021" stroke="red" />
<line x1="486.109203" y1="205.944021" x2="483.930310" y2="230.848889" stroke="red" />
<line x1="483.930310" y1="230.848889" x2="500.000000" y2="250.000000" stroke="red" />
<line x1="500.000000" y1="250.000000" x2="524.620194" y2="254.341205" stroke="cyan" />
<line x1="524.620194" y1="254.341205" x2="545.098995" y2="240.001794" stroke="cyan" />
<line x1="545.098995" y1="240.001794" x2="549.440199" y2="215.381600" stroke="cyan" />
<line x1="549.440199" y1="215.381600" x2="535.100788" y2="194.902799" stroke="cyan" />
<line x1="535.100788" y1="194.902799" x2="510.480595" y2="190.561594" stroke="cyan" />
<line x1="510.480595" y1="190.561594" x2="490.001793" y2="204.901005" stroke="cyan" />
<line x1="490.001793" y1="204.901005" x2="485.660589" y2="229.521199" stroke="cyan" />
<line x1="485.660589" y1="229.521199" x2="500.000000" y2="250.000000" stroke="cyan" />
<line x1="500.000000" y1="250.000000" x2="524.148145" y2="256.470476" stroke="purple" />
<line x1="524.148145" y1="256.470476" x2="545.798780" y2="243.970476" stroke="purple" />
<line x1="545.798780" y1="243.970476" x2="552.269256" y2="219.822331" stroke="purple" />
<line x1="552.269256" y1="219.822331" x2="539.769256" y2="198.171696" stroke="purple" />
<line x1="539.769256" y1="198.171696" x2="515.621111" y2="191.701219" stroke="purple" />
<line x1="515.621111" y1="191.701219" x2="493.970476" y2="204.201219" stroke="purple" />
<line x1="493.970476" y1="204.201219" x2="487.499999" y2="228.349365" stroke="purple" />
<line x1="487.499999" y1="228.349365" x2="499.999999" y2="250.000000" stroke="purple" />
<line x1="499.999999" y1="250.000000" x2="523.492315" y2="258.550504" stroke="orange" />
<line x1="523.492315" y1="258.550504" x2="546.150009" y2="247.985047" stroke="orange" />
<line x1="546.150009" y1="247.985047" x2="554.700513" y2="224.492732" stroke="orange" />
<line x1="554.700513" y1="224.492732" x2="544.135057" y2="201.835037" stroke="orange" />
<line x1="544.135057" y1="201.835037" x2="520.642741" y2="193.284533" stroke="orange" />
<line x1="520.642741" y1="193.284533" x2="497.985046" y2="203.849990" stroke="orange" />
<line x1="497.985046" y1="203.849990" x2="489.434543" y2="227.342305" stroke="orange" />
<line x1="489.434543" y1="227.342305" x2="499.999999" y2="250.000000" stroke="orange" />
<line x1="499.999999" y1="250.000000" x2="522.657694" y2="260.565457" stroke="green" />
<line x1="522.657694" y1="260.565457" x2="546.150009" y2="252.014953" stroke="green" />
<line x1="546.150009" y1="252.014953" x2="556.715466" y2="229.357259" stroke="green" />
<line x1="556.715466" y1="229.357259" x2="548.164962" y2="205.864943" stroke="green" />
<line x1="548.164962" y1="205.864943" x2="525.507268" y2="195.299486" stroke="green" />
<line x1="525.507268" y1="195.299486" x2="502.014952" y2="203.849990" stroke="green" />
<line x1="502.014952" y1="203.849990" x2="491.449495" y2="226.507685" stroke="green" />
<line x1="491.449495" y1="226.507685" x2="499.999999" y2="250.000000" stroke="green" />
<line x1="499.999999" y1="250.000000" x2="521.650634" y2="262.500000" stroke="yellow" />
<line x1="521.650634" y1="262.500000" x2="545.798780" y2="256.029524" stroke="yellow" />
<line x1="545.798780" y1="256.029524" x2="558.298780" y2="234.378889" stroke="yellow" />
<line x1="558.298780" y1="234.378889" x2="551.828303" y2="210.230743" stroke="yellow" />
<line x1="551.828303" y1="210.230743" x2="530.177668" y2="197.730743" stroke="yellow" />
<line x1="530.177668" y1="197.730743" x2="506.029523" y2="204.201219" stroke="yellow" />
<line x1="506.029523" y1="204.201219" x2="493.529523" y2="225.851854" stroke="yellow" />
<line x1="493.529523" y1="225.851854" x2="499.999999" y2="250.000000" stroke="yellow" />
<line x1="499.999999" y1="250.000000" x2="520.478800" y2="264.339411" stroke="blue" />
<line x1="520.478800" y1="264.339411" x2="545.098993" y2="259.998207" stroke="blue" />
<line x1="545.098993" y1="259.998207" x2="559.438404" y2="239.519406" stroke="blue" />
<line x1="559.438404" y1="239.519406" x2="555.097200" y2="214.899212" stroke="blue" />
<line x1="555.097200" y1="214.899212" x2="534.618399" y2="200.559801" stroke="blue" />
<line x1="534.618399" y1="200.559801" x2="509.998205" y2="204.901005" stroke="blue" />
<line x1="509.998205" y1="204.901005" x2="495.658794" y2="225.379806" stroke="blue" />
<line x1="495.658794" y1="225.379806" x2="499.999998" y2="250.000000" stroke="blue" />
<line x1="499.999998" y1="250.000000" x2="519.151109" y2="266.069690" stroke="black" />
<line x1="519.151109" y1="266.069690" x2="544.055977" y2="263.890797" stroke="black" />
<line x1="544.055977" y1="263.890797" x2="560.125667" y2="244.739686" stroke="black" />
<line x1="560.125667" y1="244.739686" x2="557.946774" y2="219.834818" stroke="black" />
<line x1="557.946774" y1="219.834818" x2="538.795663" y2="203.765128" stroke="black" />
<line x1="538.795663" y1="203.765128" x2="513.890795" y2="205.944022" stroke="black" />
<line x1="513.890795" y1="205.944022" x2="497.821105" y2="225.095133" stroke="black" />
<line x1="497.821105" y1="225.095133" x2="499.999998" y2="250.000000" stroke="black" />
<line x1="499.999998" y1="250.000000" x2="517.677668" y2="267.677670" stroke="red" />
<line x1="517.677668" y1="267.677670" x2="542.677668" y2="267.677670" stroke="red" />
<line x1="542.677668" y1="267.677670" x2="560.355337" y2="250.000000" stroke="red" />
<line x1="560.355337" y1="250.000000" x2="560.355337" y2="225.000000" stroke="red" />
<line x1="560.355337" y1="225.000000" x2="542.677668" y2="207.322331" stroke="red" />
<line x1="542.677668" y1="207.322331" x2="517.677668" y2="207.322330" stroke="red" />
<line x1="517.677668" y1="207.322330" x2="499.999998" y2="225.000000" stroke="red" />
<line x1="499.999998" y1="225.000000" x2="499.999998" y2="250.000000" stroke="red" />
<line x1="499.999998" y1="250.000000" x2="516.069688" y2="269.151111" stroke="cyan" />
<line x1="516.069688" y1="269.151111" x2="540.974556" y2="271.330005" stroke="cyan" />
<line x1="540.974556" y1="271.330005" x2="560.125667" y2="255.260315" stroke="cyan" />
<line x1="560.125667" y1="255.260315" x2="562.304560" y2="230.355447" stroke="cyan" />
<line x1="562.304560" y1="230.355447" x2="546.234870" y2="211.204336" stroke="cyan" />
<line x1="546.234870" y1="211.204336" x2="521.330003" y2="209.025442" stroke="cyan" />
<line x1="521.330003" y1="209.025442" x2="502.178891" y2="225.095133" stroke="cyan" />
<line x1="502.178891" y1="225.095133" x2="499.999998" y2="250.000000" stroke="cyan" />
<line x1="499.999998" y1="250.000000" x2="514.339409" y2="270.478801" stroke="purple" />
<line x1="514.339409" y1="270.478801" x2="538.959602" y2="274.820006" stroke="purple" />
<line x1="538.959602" y1="274.820006" x2="559.438403" y2="260.480595" stroke="purple" />
<line x1="559.438403" y1="260.480595" x2="563.779608" y2="235.860401" stroke="purple" />
<line x1="563.779608" y1="235.860401" x2="549.440197" y2="215.381600" stroke="purple" />
<line x1="549.440197" y1="215.381600" x2="524.820003" y2="211.040395" stroke="purple" />
<line x1="524.820003" y1="211.040395" x2="504.341202" y2="225.379806" stroke="purple" />
<line x1="504.341202" y1="225.379806" x2="499.999997" y2="250.000000" stroke="purple" />
<line x1="499.999997" y1="250.000000" x2="512.499997" y2="271.650635" stroke="orange" />
<line x1="512.499997" y1="271.650635" x2="536.648143" y2="278.121111" stroke="orange" />
<line x1="536.648143" y1="278.121111" x2="558.298778" y2="265.621112" stroke="orange" />
<line x1="558.298778" y1="265.621112" x2="564.769254" y2="241.472966" stroke="orange" />
<line x1="564.769254" y1="241.472966" x2="552.269254" y2="219.822331" stroke="orange" />
<line x1="552.269254" y1="219.822331" x2="528.121109" y2="213.351855" stroke="orange" />
<line x1="528.121109" y1="213.351855" x2="506.470474" y2="225.851854" stroke="orange" />
<line x1="506.470474" y1="225.851854" x2="499.999997" y2="250.000000" stroke="orange" />
<line x1="499.999997" y1="250.000000" x2="510.565454" y2="272.657695" stroke="green" />
<line x1="510.565454" y1="272.657695" x2="534.057769" y2="281.208199" stroke="green" />
<line x1="534.057769" y1="281.208199" x2="556.715464" y2="270.642742" stroke="green" />
<line x1="556.715464" y1="270.642742" x2="565.265967" y2="247.150427" stroke="green" />
<line x1="565.265967" y1="247.150427" x2="554.700511" y2="224.492732" stroke="green" />
<line x1="554.700511" y1="224.492732" x2="531.208195" y2="215.942228" stroke="green" />
<line x1="531.208195" y1="215.942228" x2="508.550501" y2="226.507685" stroke="green" />
<line x1="508.550501" y1="226.507685" x2="499.999997" y2="250.000000" stroke="green" />
<line x1="499.999997" y1="250.000000" x2="508.550500" y2="273.492316" stroke="yellow" />
<line x1="508.550500" y1="273.492316" x2="531.208195" y2="284.057772" stroke="yellow" />
<line x1="531.208195" y1="284.057772" x2="554.700511" y2="275.507269" stroke="yellow" />
<line x1="554.700511" y1="275.507269" x2="565.265967" y2="252.849574" stroke="yellow" />
<line x1="565.265967" y1="252.849574" x2="556.715464" y2="229.357259" stroke="yellow" />
<line x1="556.715464" y1="229.357259" x2="534.057769" y2="218.791802" stroke="yellow" />
<line x1="534.057769" y1="218.791802" x2="510.565453" y2="227.342305" stroke="yellow" />
<line x1="510.565453" y1="227.342305" x2="499.999997" y2="250.000000" stroke="yellow" />
<line x1="499.999997" y1="250.000000" x2="506.470473" y2="274.148146" stroke="blue" />
<line x1="506.470473" y1="274.148146" x2="528.121108" y2="286.648146" stroke="blue" />
<line x1="528.121108" y1="286.648146" x2="552.269253" y2="280.177670" stroke="blue" />
<line x1="552.269253" y1="280.177670" x2="564.769253" y2="258.527035" stroke="blue" />
<line x1="564.769253" y1="258.527035" x2="558.298777" y2="234.378889" stroke="blue" />
<line x1="558.298777" y1="234.378889" x2="536.648142" y2="221.878889" stroke="blue" />
<line x1="536.648142" y1="221.878889" x2="512.499997" y2="228.349365" stroke="blue" />
<line x1="512.499997" y1="228.349365" x2="499.999997" y2="250.000000" stroke="blue" />
<line x1="499.999997" y1="250.000000" x2="504.341201" y2="274.620194" stroke="black" />
<line x1="504.341201" y1="274.620194" x2="524.820002" y2="288.959605" stroke="black" />
<line x1="524.820002" y1="288.959605" x2="549.440196" y2="284.618400" stroke="black" />
<line x1="549.440196" y1="284.618400" x2="563.779607" y2="264.139599" stroke="black" />
<line x1="563.779607" y1="264.139599" x2="559.438402" y2="239.519406" stroke="black" />
<line x1="559.438402" y1="239.519406" x2="538.959601" y2="225.179995" stroke="black" />
<line x1="538.959601" y1="225.179995" x2="514.339407" y2="229.521199" stroke="black" />
<line x1="514.339407" y1="229.521199" x2="499.999996" y2="250.000000" stroke="black" />
<line x1="499.999996" y1="250.000000" x2="502.178890" y2="274.904867" stroke="red" />
<line x1="502.178890" y1="274.904867" x2="521.330001" y2="290.974558" stroke="red" />
<line x1="521.330001" y1="290.974558" x2="546.234868" y2="288.795664" stroke="red" />
<line x1="546.234868" y1="288.795664" x2="562.304558" y2="269.644553" stroke="red" />
<line x1="562.304558" y1="269.644553" x2="560.125665" y2="244.739686" stroke="red" />
<line x1="560.125665" y1="244.739686" x2="540.974554" y2="228.669995" stroke="red" />
<line x1="540.974554" y1="228.669995" x2="516.069686" y2="230.848889" stroke="red" />
<line x1="516.069686" y1="230.848889" x2="499.999996" y2="250.000000" stroke="red" />
<line x1="499.999996" y1="250.000000" x2="499.999996" y2="275.000000" stroke="cyan" />
<line x1="499.999996" y1="275.000000" x2="517.677665" y2="292.677670" stroke="cyan" />
<line x1="517.677665" y1="292.677670" x2="542.677665" y2="292.677670" stroke="cyan" />
<line x1="542.677665" y1="292.677670" x2="560.355335" y2="275.000000" stroke="cyan" />
<line x1="560.355335" y1="275.000000" x2="560.355335" y2="250.000000" stroke="cyan" />
<line x1="560.355335" y1="250.000000" x2="542.677665" y2="232.322330" stroke="cyan" />
<line x1="542.677665" y1="232.322330" x2="517.677665" y2="232.322330" stroke="cyan" />
<line x1="517.677665" y1="232.322330" x2="499.999996" y2="250.000000" stroke="cyan" />
<line x1="499.999996" y1="250.000000" x2="497.821102" y2="274.904867" stroke="purple" />
<line x1="497.821102" y1="274.904867" x2="513.890792" y2="294.055978" stroke="purple" />
<line x1="513.890792" y1="294.055978" x2="538.795660" y2="296.234872" stroke="purple" />
<line x1="538.795660" y1="296.234872" x2="557.946771" y2="280.165182" stroke="purple" />
<line x1="557.946771" y1="280.165182" x2="560.125664" y2="255.260315" stroke="purple" />
<line x1="560.125664" y1="255.260315" x2="544.055974" y2="236.109203" stroke="purple" />
<line x1="544.055974" y1="236.109203" x2="519.151107" y2="233.930310" stroke="purple" />
<line x1="519.151107" y1="233.930310" x2="499.999996" y2="250.000000" stroke="purple" />
<line x1="499.999996" y1="250.000000" x2="495.658791" y2="274.620194" stroke="orange" />
<line x1="495.658791" y1="274.620194" x2="509.998202" y2="295.098995" stroke="orange" />
<line x1="509.998202" y1="295.098995" x2="534.618396" y2="299.440200" stroke="orange" />
<line x1="534.618396" y1="299.440200" x2="555.097197" y2="285.100789" stroke="orange" />
<line x1="555.097197" y1="285.100789" x2="559.438401" y2="260.480595" stroke="orange" />
<line x1="559.438401" y1="260.480595" x2="545.098990" y2="240.001794" stroke="orange" />
<line x1="545.098990" y1="240.001794" x2="520.478797" y2="235.660589" stroke="orange" />
<line x1="520.478797" y1="235.660589" x2="499.999995" y2="250.000000" stroke="orange" />
<line x1="499.999995" y1="250.000000" x2="493.529519" y2="274.148146" stroke="green" />
<line x1="493.529519" y1="274.148146" x2="506.029519" y2="295.798781" stroke="green" />
<line x1="506.029519" y1="295.798781" x2="530.177665" y2="302.269257" stroke="green" />
<line x1="530.177665" y1="302.269257" x2="551.828300" y2="289.769257" stroke="green" />
<line x1="551.828300" y1="289.769257" x2="558.298776" y2="265.621111" stroke="green" />
<line x1="558.298776" y1="265.621111" x2="545.798776" y2="243.970476" stroke="green" />
<line x1="545.798776" y1="243.970476" x2="521.650630" y2="237.500000" stroke="green" />
<line x1="521.650630" y1="237.500000" x2="499.999995" y2="250.000000" stroke="green" />
<line x1="499.999995" y1="250.000000" x2="491.449492" y2="273.492315" stroke="yellow" />
<line x1="491.449492" y1="273.492315" x2="502.014948" y2="296.150010" stroke="yellow" />
<line x1="502.014948" y1="296.150010" x2="525.507263" y2="304.700514" stroke="yellow" />
<line x1="525.507263" y1="304.700514" x2="548.164958" y2="294.135057" stroke="yellow" />
<line x1="548.164958" y1="294.135057" x2="556.715462" y2="270.642742" stroke="yellow" />
<line x1="556.715462" y1="270.642742" x2="546.150005" y2="247.985047" stroke="yellow" />
<line x1="546.150005" y1="247.985047" x2="522.657690" y2="239.434544" stroke="yellow" />
<line x1="522.657690" y1="239.434544" x2="499.999995" y2="250.000000" stroke="yellow" />
<line x1="499.999995" y1="250.000000" x2="489.434538" y2="272.657695" stroke="blue" />
<line x1="489.434538" y1="272.657695" x2="497.985042" y2="296.150010" stroke="blue" />
<line x1="497.985042" y1="296.150010" x2="520.642736" y2="306.715467" stroke="blue" />
<line x1="520.642736" y1="306.715467" x2="544.135052" y2="298.164963" stroke="blue" />
<line x1="544.135052" y1="298.164963" x2="554.700508" y2="275.507269" stroke="blue" />
<line x1="554.700508" y1="275.507269" x2="546.150005" y2="252.014953" stroke="blue" />
<line x1="546.150005" y1="252.014953" x2="523.492310" y2="241.449496" stroke="blue" />
<line x1="523.492310" y1="241.449496" x2="499.999995" y2="250.000000" stroke="blue" />
<line x1="499.999995" y1="250.000000" x2="487.499995" y2="271.650635" stroke="black" />
<line x1="487.499995" y1="271.650635" x2="493.970471" y2="295.798781" stroke="black" />
<line x1="493.970471" y1="295.798781" x2="515.621106" y2="308.298781" stroke="black" />
<line x1="515.621106" y1="308.298781" x2="539.769251" y2="301.828305" stroke="black" />
<line x1="539.769251" y1="301.828305" x2="552.269251" y2="280.177670" stroke="black" />
<line x1="552.269251" y1="280.177670" x2="545.798775" y2="256.029524" stroke="black" />
<line x1="545.798775" y1="256.029524" x2="524.148140" y2="243.529524" stroke="black" />
<line x1="524.148140" y1="243.529524" x2="499.999995" y2="250.000000" stroke="black" />
<line x1="499.999995" y1="250.000000" x2="485.660583" y2="270.478801" stroke="red" />
<line x1="485.660583" y1="270.478801" x2="490.001788" y2="295.098995" stroke="red" />
<line x1="490.001788" y1="295.098995" x2="510.480589" y2="309.438406" stroke="red" />
<line x1="510.480589" y1="309.438406" x2="535.100783" y2="305.097201" stroke="red" />
<line x1="535.100783" y1="305.097201" x2="549.440194" y2="284.618400" stroke="red" />
<line x1="549.440194" y1="284.618400" x2="545.098989" y2="259.998207" stroke="red" />
<line x1="545.098989" y1="259.998207" x2="524.620188" y2="245.658796" stroke="red" />
<line x1="524.620188" y1="245.658796" x2="499.999994" y2="250.000000" stroke="red" />
<line x1="499.999994" y1="250.000000" x2="483.930304" y2="269.151111" stroke="cyan" />
<line x1="483.930304" y1="269.151111" x2="486.109197" y2="294.055978" stroke="cyan" />
<line x1="486.109197" y1="294.055978" x2="505.260308" y2="310.125669" stroke="cyan" />
<line x1="505.260308" y1="310.125669" x2="530.165176" y2="307.946775" stroke="cyan" />
<line x1="530.165176" y1="307.946775" x2="546.234866" y2="288.795664" stroke="cyan" />
<line x1="546.234866" y1="288.795664" x2="544.055973" y2="263.890797" stroke="cyan" />
<line x1="544.055973" y1="263.890797" x2="524.904862" y2="247.821106" stroke="cyan" />
<line x1="524.904862" y1="247.821106" x2="499.999994" y2="250.000000" stroke="cyan" />
<line x1="499.999994" y1="250.000000" x2="482.322324" y2="267.677669" stroke="purple" />
<line x1="482.322324" y1="267.677669" x2="482.322324" y2="292.677669" stroke="purple" />
<line x1="482.322324" y1="292.677669" x2="499.999994" y2="310.355339" stroke="purple" />
<line x1="499.999994" y1="310.355339" x2="524.999994" y2="310.355339" stroke="purple" />
<line x1="524.999994" y1="310.355339" x2="542.677663" y2="292.677669" stroke="purple" />
<line x1="542.677663" y1="292.677669" x2="542.677663" y2="267.677669" stroke="purple" />
<line x1="542.677663" y1="267.677669" x2="524.999994" y2="250.000000" stroke="purple" />
<line x1="524.999994" y1="250.000000" x2="499.999994" y2="250.000000" stroke="purple" />
<line x1="499.999994" y1="250.000000" x2="480.848883" y2="266.069690" stroke="orange" />
<line x1="480.848883" y1="266.069690" x2="478.669989" y2="290.974557" stroke="orange" />
<line x1="478.669989" y1="290.974557" x2="494.739679" y2="310.125669" stroke="orange" />
<line x1="494.739679" y1="310.125669" x2="519.644547" y2="312.304562" stroke="orange" />
<line x1="519.644547" y1="312.304562" x2="538.795658" y2="296.234872" stroke="orange" />
<line x1="538.795658" y1="296.234872" x2="540.974551" y2="271.330005" stroke="orange" />
<line x1="540.974551" y1="271.330005" x2="524.904861" y2="252.178893" stroke="orange" />
<line x1="524.904861" y1="252.178893" x2="499.999994" y2="250.000000" stroke="orange" />
<line x1="499.999994" y1="250.000000" x2="479.521192" y2="264.339411" stroke="green" />
<line x1="479.521192" y1="264.339411" x2="475.179988" y2="288.959604" stroke="green" />
<line x1="475.179988" y1="288.959604" x2="489.519399" y2="309.438406" stroke="green" />
<line x1="489.519399" y1="309.438406" x2="514.139592" y2="313.779610" stroke="green" />
<line x1="514.139592" y1="313.779610" x2="534.618394" y2="299.440199" stroke="green" />
<line x1="534.618394" y1="299.440199" x2="538.959598" y2="274.820006" stroke="green" />
<line x1="538.959598" y1="274.820006" x2="524.620187" y2="254.341204" stroke="green" />
<line x1="524.620187" y1="254.341204" x2="499.999993" y2="250.000000" stroke="green" />
<line x1="499.999993" y1="250.000000" x2="478.349358" y2="262.500000" stroke="yellow" />
<line x1="478.349358" y1="262.500000" x2="471.878882" y2="286.648145" stroke="yellow" />
<line x1="471.878882" y1="286.648145" x2="484.378882" y2="308.298781" stroke="yellow" />
<line x1="484.378882" y1="308.298781" x2="508.527027" y2="314.769257" stroke="yellow" />
<line x1="508.527027" y1="314.769257" x2="530.177663" y2="302.269257" stroke="yellow" />
<line x1="530.177663" y1="302.269257" x2="536.648139" y2="278.121111" stroke="yellow" />
<line x1="536.648139" y1="278.121111" x2="524.148139" y2="256.470476" stroke="yellow" />
<line x1="524.148139" y1="256.470476" x2="499.999993" y2="250.000000" stroke="yellow" />
<line x1="499.999993" y1="250.000000" x2="477.342298" y2="260.565456" stroke="blue" />
<line x1="477.342298" y1="260.565456" x2="468.791795" y2="284.057772" stroke="blue" />
<line x1="468.791795" y1="284.057772" x2="479.357251" y2="306.715467" stroke="blue" />
<line x1="479.357251" y1="306.715467" x2="502.849567" y2="315.265970" stroke="blue" />
<line x1="502.849567" y1="315.265970" x2="525.507261" y2="304.700514" stroke="blue" />
<line x1="525.507261" y1="304.700514" x2="534.057765" y2="281.208198" stroke="blue" />
<line x1="534.057765" y1="281.208198" x2="523.492308" y2="258.550504" stroke="blue" />
<line x1="523.492308" y1="258.550504" x2="499.999993" y2="250.000000" stroke="blue" />
<line x1="499.999993" y1="250.000000" x2="476.507677" y2="258.550503" stroke="black" />
<line x1="476.507677" y1="258.550503" x2="465.942221" y2="281.208198" stroke="black" />
<line x1="465.942221" y1="281.208198" x2="474.492724" y2="304.700514" stroke="black" />
<line x1="474.492724" y1="304.700514" x2="497.150419" y2="315.265970" stroke="black" />
<line x1="497.150419" y1="315.265970" x2="520.642734" y2="306.715467" stroke="black" />
<line x1="520.642734" y1="306.715467" x2="531.208191" y2="284.057772" stroke="black" />
<line x1="531.208191" y1="284.057772" x2="522.657687" y2="260.565456" stroke="black" />
<line x1="522.657687" y1="260.565456" x2="499.999993" y2="250.000000" stroke="black" />
<line x1="499.999993" y1="250.000000" x2="475.851847" y2="256.470476" stroke="red" />
<line x1="475.851847" y1="256.470476" x2="463.351847" y2="278.121111" stroke="red" />
<line x1="463.351847" y1="278.121111" x2="469.822323" y2="302.269257" stroke="red" />
<line x1="469.822323" y1="302.269257" x2="491.472958" y2="314.769257" stroke="red" />
<line x1="491.472958" y1="314.769257" x2="515.621104" y2="308.298781" stroke="red" />
<line x1="515.621104" y1="308.298781" x2="528.121104" y2="286.648146" stroke="red" />
<line x1="528.121104" y1="286.648146" x2="521.650628" y2="262.500000" stroke="red" />
<line x1="521.650628" y1="262.500000" x2="499.999992" y2="250.000000" stroke="red" />
<line x1="499.999992" y1="250.000000" x2="475.379799" y2="254.341204" stroke="cyan" />
<line x1="475.379799" y1="254.341204" x2="461.040388" y2="274.820005" stroke="cyan" />
<line x1="461.040388" y1="274.820005" x2="465.381592" y2="299.440199" stroke="cyan" />
<line x1="465.381592" y1="299.440199" x2="485.860393" y2="313.779610" stroke="cyan" />
<line x1="485.860393" y1="313.779610" x2="510.480587" y2="309.438406" stroke="cyan" />
<line x1="510.480587" y1="309.438406" x2="524.819998" y2="288.959605" stroke="cyan" />
<line x1="524.819998" y1="288.959605" x2="520.478793" y2="264.339411" stroke="cyan" />
<line x1="520.478793" y1="264.339411" x2="499.999992" y2="250.000000" stroke="cyan" />
<line x1="499.999992" y1="250.000000" x2="475.095125" y2="252.178893" stroke="purple" />
<line x1="475.095125" y1="252.178893" x2="459.025434" y2="271.330004" stroke="purple" />
<line x1="459.025434" y1="271.330004" x2="461.204328" y2="296.234872" stroke="purple" />
<line x1="461.204328" y1="296.234872" x2="480.355439" y2="312.304562" stroke="purple" />
<line x1="480.355439" y1="312.304562" x2="505.260306" y2="310.125669" stroke="purple" />
<line x1="505.260306" y1="310.125669" x2="521.329997" y2="290.974557" stroke="purple" />
<line x1="521.329997" y1="290.974557" x2="519.151103" y2="266.069690" stroke="purple" />
<line x1="519.151103" y1="266.069690" x2="499.999992" y2="250.000000" stroke="purple" />
<line x1="499.999992" y1="250.000000" x2="474.999992" y2="250.000000" stroke="orange" />
<line x1="474.999992" y1="250.000000" x2="457.322322" y2="267.677669" stroke="orange" />
<line x1="457.322322" y1="267.677669" x2="457.322322" y2="292.677669" stroke="orange" />
<line x1="457.322322" y1="292.677669" x2="474.999992" y2="310.355339" stroke="orange" />
<line x1="474.999992" y1="310.355339" x2="499.999992" y2="310.355339" stroke="orange" />
<line x1="499.999992" y1="310.355339" x2="517.677661" y2="292.677669" stroke="orange" />
<line x1="517.677661" y1="292.677669" x2="517.677661" y2="267.677669" stroke="orange" />
<line x1="517.677661" y1="267.677669" x2="499.999992" y2="250.000000" stroke="orange" />
<line x1="499.999992" y1="250.000000" x2="475.095124" y2="247.821106" stroke="green" />
<line x1="475.095124" y1="247.821106" x2="455.944013" y2="263.890796" stroke="green" />
<line x1="455.944013" y1="263.890796" x2="453.765119" y2="288.795664" stroke="green" />
<line x1="453.765119" y1="288.795664" x2="469.834810" y2="307.946775" stroke="green" />
<line x1="469.834810" y1="307.946775" x2="494.739677" y2="310.125669" stroke="green" />
<line x1="494.739677" y1="310.125669" x2="513.890788" y2="294.055978" stroke="green" />
<line x1="513.890788" y1="294.055978" x2="516.069682" y2="269.151111" stroke="green" />
<line x1="516.069682" y1="269.151111" x2="499.999992" y2="250.000000" stroke="green" />
<line x1="499.999992" y1="250.000000" x2="475.379798" y2="245.658795" stroke="yellow" />
<line x1="475.379798" y1="245.658795" x2="454.900997" y2="259.998206" stroke="yellow" />
<line x1="454.900997" y1="259.998206" x2="450.559792" y2="284.618400" stroke="yellow" />
<line x1="450.559792" y1="284.618400" x2="464.899203" y2="305.097201" stroke="yellow" />
<line x1="464.899203" y1="305.097201" x2="489.519397" y2="309.438406" stroke="yellow" />
<line x1="489.519397" y1="309.438406" x2="509.998198" y2="295.098995" stroke="yellow" />
<line x1="509.998198" y1="295.098995" x2="514.339402" y2="270.478801" stroke="yellow" />
<line x1="514.339402" y1="270.478801" x2="499.999991" y2="250.000000" stroke="yellow" />
<line x1="499.999991" y1="250.000000" x2="475.851846" y2="243.529524" stroke="blue" />
<line x1="475.851846" y1="243.529524" x2="454.201211" y2="256.029523" stroke="blue" />
<line x1="454.201211" y1="256.029523" x2="447.730734" y2="280.177669" stroke="blue" />
<line x1="447.730734" y1="280.177669" x2="460.230734" y2="301.828304" stroke="blue" />
<line x1="460.230734" y1="301.828304" x2="484.378880" y2="308.298781" stroke="blue" />
<line x1="484.378880" y1="308.298781" x2="506.029515" y2="295.798781" stroke="blue" />
<line x1="506.029515" y1="295.798781" x2="512.499991" y2="271.650635" stroke="blue" />
<line x1="512.499991" y1="271.650635" x2="499.999991" y2="250.000000" stroke="blue" />
<line x1="499.999991" y1="250.000000" x2="476.507676" y2="241.449496" stroke="black" />
<line x1="476.507676" y1="241.449496" x2="453.849981" y2="252.014953" stroke="black" />
<line x1="453.849981" y1="252.014953" x2="445.299477" y2="275.507268" stroke="black" />
<line x1="445.299477" y1="275.507268" x2="455.864934" y2="298.164963" stroke="black" />
<line x1="455.864934" y1="298.164963" x2="479.357249" y2="306.715467" stroke="black" />
<line x1="479.357249" y1="306.715467" x2="502.014944" y2="296.150010" stroke="black" />
<line x1="502.014944" y1="296.150010" x2="510.565447" y2="272.657695" stroke="black" />
<line x1="510.565447" y1="272.657695" x2="499.999991" y2="250.000000" stroke="black" />
<line x1="499.999991" y1="250.000000" x2="477.342296" y2="239.434543" stroke="red" />
<line x1="477.342296" y1="239.434543" x2="453.849981" y2="247.985047" stroke="red" />
<line x1="453.849981" y1="247.985047" x2="443.284524" y2="270.642741" stroke="red" />
<line x1="443.284524" y1="270.642741" x2="451.835027" y2="294.135057" stroke="red" />
<line x1="451.835027" y1="294.135057" x2="474.492722" y2="304.700514" stroke="red" />
<line x1="474.492722" y1="304.700514" x2="497.985038" y2="296.150010" stroke="red" />
<line x1="497.985038" y1="296.150010" x2="508.550494" y2="273.492315" stroke="red" />
<line x1="508.550494" y1="273.492315" x2="499.999991" y2="250.000000" stroke="red" />
<line x1="499.999991" y1="250.000000" x2="478.349356" y2="237.500000" stroke="cyan" />
<line x1="478.349356" y1="237.500000" x2="454.201210" y2="243.970476" stroke="cyan" />
<line x1="454.201210" y1="243.970476" x2="441.701210" y2="265.621111" stroke="cyan" />
<line x1="441.701210" y1="265.621111" x2="448.171686" y2="289.769256" stroke="cyan" />
<line x1="448.171686" y1="289.769256" x2="469.822321" y2="302.269257" stroke="cyan" />
<line x1="469.822321" y1="302.269257" x2="493.970466" y2="295.798781" stroke="cyan" />
<line x1="493.970466" y1="295.798781" x2="506.470466" y2="274.148145" stroke="cyan" />
<line x1="506.470466" y1="274.148145" x2="499.999990" y2="250.000000" stroke="cyan" />
<line x1="499.999990" y1="250.000000" x2="479.521189" y2="235.660589" stroke="purple" />
<line x1="479.521189" y1="235.660589" x2="454.900995" y2="240.001793" stroke="purple" />
<line x1="454.900995" y1="240.001793" x2="440.561584" y2="260.480594" stroke="purple" />
<line x1="440.561584" y1="260.480594" x2="444.902789" y2="285.100788" stroke="purple" />
<line x1="444.902789" y1="285.100788" x2="465.381590" y2="299.440199" stroke="purple" />
<line x1="465.381590" y1="299.440199" x2="490.001784" y2="295.098995" stroke="purple" />
<line x1="490.001784" y1="295.098995" x2="504.341195" y2="274.620194" stroke="purple" />
<line x1="504.341195" y1="274.620194" x2="499.999990" y2="250.000000" stroke="purple" />
<line x1="499.999990" y1="250.000000" x2="480.848879" y2="233.930309" stroke="orange" />
<line x1="480.848879" y1="233.930309" x2="455.944012" y2="236.109203" stroke="orange" />
<line x1="455.944012" y1="236.109203" x2="439.874321" y2="255.260314" stroke="orange" />
<line x1="439.874321" y1="255.260314" x2="442.053215" y2="280.165181" stroke="orange" />
<line x1="442.053215" y1="280.165181" x2="461.204326" y2="296.234872" stroke="orange" />
<line x1="461.204326" y1="296.234872" x2="486.109193" y2="294.055978" stroke="orange" />
<line x1="486.109193" y1="294.055978" x2="502.178883" y2="274.904867" stroke="orange" />
<line x1="502.178883" y1="274.904867" x2="499.999990" y2="250.000000" stroke="orange" />
<line x1="499.999990" y1="250.000000" x2="482.322320" y2="232.322330" stroke="green" />
<line x1="482.322320" y1="232.322330" x2="457.322320" y2="232.322330" stroke="green" />
<line x1="457.322320" y1="232.322330" x2="439.644651" y2="249.999999" stroke="green" />
<line x1="439.644651" y1="249.999999" x2="439.644651" y2="274.999999" stroke="green" />
<line x1="439.644651" y1="274.999999" x2="457.322320" y2="292.677669" stroke="green" />
<line x1="457.322320" y1="292.677669" x2="482.322320" y2="292.677669" stroke="green" />
<line x1="482.322320" y1="292.677669" x2="499.999990" y2="275.000000" stroke="green" />
<line x1="499.999990" y1="275.000000" x2="499.999990" y2="250.000000" stroke="green" />
<line x1="499.999990" y1="250.000000" x2="483.930300" y2="230.848888" stroke="yellow" />
<line x1="483.930300" y1="230.848888" x2="459.025432" y2="228.669995" stroke="yellow" />
<line x1="459.025432" y1="228.669995" x2="439.874321" y2="244.739685" stroke="yellow" />
<line x1="439.874321" y1="244.739685" x2="437.695427" y2="269.644552" stroke="yellow" />
<line x1="437.695427" y1="269.644552" x2="453.765117" y2="288.795664" stroke="yellow" />
<line x1="453.765117" y1="288.795664" x2="478.669985" y2="290.974557" stroke="yellow" />
<line x1="478.669985" y1="290.974557" x2="497.821096" y2="274.904867" stroke="yellow" />
<line x1="497.821096" y1="274.904867" x2="499.999989" y2="250.000000" stroke="yellow" />
<line x1="499.999989" y1="250.000000" x2="485.660579" y2="229.521198" stroke="blue" />
<line x1="485.660579" y1="229.521198" x2="461.040385" y2="225.179994" stroke="blue" />
<line x1="461.040385" y1="225.179994" x2="440.561584" y2="239.519405" stroke="blue" />
<line x1="440.561584" y1="239.519405" x2="436.220379" y2="264.139599" stroke="blue" />
<line x1="436.220379" y1="264.139599" x2="450.559790" y2="284.618400" stroke="blue" />
<line x1="450.559790" y1="284.618400" x2="475.179984" y2="288.959604" stroke="blue" />
<line x1="475.179984" y1="288.959604" x2="495.658785" y2="274.620193" stroke="blue" />
<line x1="495.658785" y1="274.620193" x2="499.999989" y2="250.000000" stroke="blue" />
<line x1="499.999989" y1="250.000000" x2="487.499989" y2="228.349365" stroke="black" />
<line x1="487.499989" y1="228.349365" x2="463.351844" y2="221.878888" stroke="black" />
<line x1="463.351844" y1="221.878888" x2="441.701209" y2="234.378888" stroke="black" />
<line x1="441.701209" y1="234.378888" x2="435.230732" y2="258.527034" stroke="black" />
<line x1="435.230732" y1="258.527034" x2="447.730732" y2="280.177669" stroke="black" />
<line x1="447.730732" y1="280.177669" x2="471.878878" y2="286.648145" stroke="black" />
<line x1="471.878878" y1="286.648145" x2="493.529513" y2="274.148145" stroke="black" />
<line x1="493.529513" y1="274.148145" x2="499.999989" y2="250.000000" stroke="black" />
<line x1="499.999989" y1="250.000000" x2="489.434533" y2="227.342305" stroke="red" />
<line x1="489.434533" y1="227.342305" x2="465.942217" y2="218.791801" stroke="red" />
<line x1="465.942217" y1="218.791801" x2="443.284522" y2="229.357258" stroke="red" />
<line x1="443.284522" y1="229.357258" x2="434.734019" y2="252.849573" stroke="red" />
<line x1="434.734019" y1="252.849573" x2="445.299475" y2="275.507268" stroke="red" />
<line x1="445.299475" y1="275.507268" x2="468.791791" y2="284.057772" stroke="red" />
<line x1="468.791791" y1="284.057772" x2="491.449485" y2="273.492315" stroke="red" />
<line x1="491.449485" y1="273.492315" x2="499.999989" y2="250.000000" stroke="red" />
<line x1="499.999989" y1="250.000000" x2="491.449485" y2="226.507684" stroke="cyan" />
<line x1="491.449485" y1="226.507684" x2="468.791791" y2="215.942228" stroke="cyan" />
<line x1="468.791791" y1="215.942228" x2="445.299475" y2="224.492731" stroke="cyan" />
<line x1="445.299475" y1="224.492731" x2="434.734018" y2="247.150426" stroke="cyan" />
<line x1="434.734018" y1="247.150426" x2="443.284522" y2="270.642741" stroke="cyan" />
<line x1="443.284522" y1="270.642741" x2="465.942216" y2="281.208198" stroke="cyan" />
<line x1="465.942216" y1="281.208198" x2="489.434532" y2="272.657694" stroke="cyan" />
<line x1="489.434532" y1="272.657694" x2="499.999989" y2="250.000000" stroke="cyan" />
<line x1="499.999989" y1="250.000000" x2="493.529512" y2="225.851854" stroke="purple" />
<line x1="493.529512" y1="225.851854" x2="471.878877" y2="213.351854" stroke="purple" />
<line x1="471.878877" y1="213.351854" x2="447.730732" y2="219.822330" stroke="purple" />
<line x1="447.730732" y1="219.822330" x2="435.230732" y2="241.472965" stroke="purple" />
<line x1="435.230732" y1="241.472965" x2="441.701208" y2="265.621111" stroke="purple" />
<line x1="441.701208" y1="265.621111" x2="463.351843" y2="278.121111" stroke="purple" />
<line x1="463.351843" y1="278.121111" x2="487.499988" y2="271.650635" stroke="purple" />
<line x1="487.499988" y1="271.650635" x2="499.999988" y2="250.000000" stroke="purple" />
<line x1="499.999988" y1="250.000000" x2="495.658784" y2="225.379806" stroke="orange" />
<line x1="495.658784" y1="225.379806" x2="475.179983" y2="211.040395" stroke="orange" />
<line x1="475.179983" y1="211.040395" x2="450.559789" y2="215.381599" stroke="orange" />
<line x1="450.559789" y1="215.381599" x2="436.220378" y2="235.860400" stroke="orange" />
<line x1="436.220378" y1="235.860400" x2="440.561582" y2="260.480594" stroke="orange" />
<line x1="440.561582" y1="260.480594" x2="461.040383" y2="274.820005" stroke="orange" />
<line x1="461.040383" y1="274.820005" x2="485.660577" y2="270.478801" stroke="orange" />
<line x1="485.660577" y1="270.478801" x2="499.999988" y2="250.000000" stroke="orange" />
<line x1="499.999988" y1="250.000000" x2="497.821095" y2="225.095132" stroke="green" />
<line x1="497.821095" y1="225.095132" x2="478.669984" y2="209.025442" stroke="green" />
<line x1="478.669984" y1="209.025442" x2="453.765116" y2="211.204335" stroke="green" />
<line x1="453.765116" y1="211.204335" x2="437.695426" y2="230.355446" stroke="green" />
<line x1="437.695426" y1="230.355446" x2="439.874319" y2="255.260314" stroke="green" />
<line x1="439.874319" y1="255.260314" x2="459.025430" y2="271.330004" stroke="green" />
<line x1="459.025430" y1="271.330004" x2="483.930298" y2="269.151111" stroke="green" />
<line x1="483.930298" y1="269.151111" x2="499.999988" y2="250.000000" stroke="green" />
<line x1="499.999988" y1="250.000000" x2="499.999988" y2="225.000000" stroke="yellow" />
<line x1="499.999988" y1="225.000000" x2="482.322318" y2="207.322330" stroke="yellow" />
<line x1="482.322318" y1="207.322330" x2="457.322318" y2="207.322330" stroke="yellow" />
<line x1="457.322318" y1="207.322330" x2="439.644649" y2="224.999999" stroke="yellow" />
<line x1="439.644649" y1="224.999999" x2="439.644649" y2="249.999999" stroke="yellow" />
<line x1="439.644649" y1="249.999999" x2="457.322318" y2="267.677669" stroke="yellow" />
<line x1="457.322318" y1="267.677669" x2="482.322318" y2="267.677669" stroke="yellow" />
<line x1="482.322318" y1="267.677669" x2="499.999988" y2="249.999999" stroke="yellow" />
<line x1="499.999988" y1="249.999999" x2="502.178881" y2="225.095132" stroke="blue" />
<line x1="502.178881" y1="225.095132" x2="486.109191" y2="205.944021" stroke="blue" />
<line x1="486.109191" y1="205.944021" x2="461.204324" y2="203.765127" stroke="blue" />
<line x1="461.204324" y1="203.765127" x2="442.053212" y2="219.834817" stroke="blue" />
<line x1="442.053212" y1="219.834817" x2="439.874319" y2="244.739685" stroke="blue" />
<line x1="439.874319" y1="244.739685" x2="455.944009" y2="263.890796" stroke="blue" />
<line x1="455.944009" y1="263.890796" x2="480.848876" y2="266.069690" stroke="blue" />
<line x1="480.848876" y1="266.069690" x2="499.999987" y2="250.000000" stroke="blue" />
<line x1="499.999987" y1="250.000000" x2="504.341192" y2="225.379806" stroke="black" />
<line x1="504.341192" y1="225.379806" x2="490.001781" y2="204.901005" stroke="black" />
<line x1="490.001781" y1="204.901005" x2="465.381587" y2="200.559800" stroke="black" />
<line x1="465.381587" y1="200.559800" x2="444.902786" y2="214.899211" stroke="black" />
<line x1="444.902786" y1="214.899211" x2="440.561582" y2="239.519405" stroke="black" />
<line x1="440.561582" y1="239.519405" x2="454.900992" y2="259.998206" stroke="black" />
<line x1="454.900992" y1="259.998206" x2="479.521186" y2="264.339410" stroke="black" />
<line x1="479.521186" y1="264.339410" x2="499.999987" y2="250.000000" stroke="black" />
<line x1="499.999987" y1="250.000000" x2="506.470463" y2="225.851854" stroke="red" />
<line x1="506.470463" y1="225.851854" x2="493.970463" y2="204.201219" stroke="red" />
<line x1="493.970463" y1="204.201219" x2="469.822318" y2="197.730743" stroke="red" />
<line x1="469.822318" y1="197.730743" x2="448.171683" y2="210.230743" stroke="red" />
<line x1="448.171683" y1="210.230743" x2="441.701206" y2="234.378888" stroke="red" />
<line x1="441.701206" y1="234.378888" x2="454.201206" y2="256.029523" stroke="red" />
<line x1="454.201206" y1="256.029523" x2="478.349352" y2="262.500000" stroke="red" />
<line x1="478.349352" y1="262.500000" x2="499.999987" y2="250.000000" stroke="red" />
<line x1="499.999987" y1="250.000000" x2="508.550491" y2="226.507684" stroke="cyan" />
<line x1="508.550491" y1="226.507684" x2="497.985034" y2="203.849989" stroke="cyan" />
<line x1="497.985034" y1="203.849989" x2="474.492719" y2="195.299486" stroke="cyan" />
<line x1="474.492719" y1="195.299486" x2="451.835024" y2="205.864942" stroke="cyan" />
<line x1="451.835024" y1="205.864942" x2="443.284520" y2="229.357258" stroke="cyan" />
<line x1="443.284520" y1="229.357258" x2="453.849977" y2="252.014952" stroke="cyan" />
<line x1="453.849977" y1="252.014952" x2="477.342292" y2="260.565456" stroke="cyan" />
<line x1="477.342292" y1="260.565456" x2="499.999987" y2="250.000000" stroke="cyan" />
<line x1="499.999987" y1="250.000000" x2="510.565443" y2="227.342305" stroke="purple" />
<line x1="510.565443" y1="227.342305" x2="502.014940" y2="203.849989" stroke="purple" />
<line x1="502.014940" y1="203.849989" x2="479.357245" y2="193.284533" stroke="purple" />
<line x1="479.357245" y1="193.284533" x2="455.864930" y2="201.835036" stroke="purple" />
<line x1="455.864930" y1="201.835036" x2="445.299473" y2="224.492731" stroke="purple" />
<line x1="445.299473" y1="224.492731" x2="453.849976" y2="247.985046" stroke="purple" />
<line x1="453.849976" y1="247.985046" x2="476.507671" y2="258.550503" stroke="purple" />
<line x1="476.507671" y1="258.550503" x2="499.999987" y2="250.000000" stroke="purple" />
<line x1="499.999987" y1="250.000000" x2="512.499987" y2="228.349365" stroke="orange" />
<line x1="512.499987" y1="228.349365" x2="506.029510" y2="204.201219" stroke="orange" />
<line x1="506.029510" y1="204.201219" x2="484.378875" y2="191.701219" stroke="orange" />
<line x1="484.378875" y1="191.701219" x2="460.230730" y2="198.171695" stroke="orange" />
<line x1="460.230730" y1="198.171695" x2="447.730730" y2="219.822330" stroke="orange" />
<line x1="447.730730" y1="219.822330" x2="454.201206" y2="243.970476" stroke="orange" />
<line x1="454.201206" y1="243.970476" x2="475.851841" y2="256.470476" stroke="orange" />
<line x1="475.851841" y1="256.470476" x2="499.999986" y2="250.000000" stroke="orange" />
<line x1="499.999986" y1="250.000000" x2="514.339397" y2="229.521198" stroke="green" />
<line x1="514.339397" y1="229.521198" x2="509.998193" y2="204.901005" stroke="green" />
<line x1="509.998193" y1="204.901005" x2="489.519392" y2="190.561594" stroke="green" />
<line x1="489.519392" y1="190.561594" x2="464.899198" y2="194.902798" stroke="green" />
<line x1="464.899198" y1="194.902798" x2="450.559787" y2="215.381599" stroke="green" />
<line x1="450.559787" y1="215.381599" x2="454.900991" y2="240.001793" stroke="green" />
<line x1="454.900991" y1="240.001793" x2="475.379792" y2="254.341204" stroke="green" />
<line x1="475.379792" y1="254.341204" x2="499.999986" y2="250.000000" stroke="green" />
<line x1="499.999986" y1="250.000000" x2="516.069676" y2="230.848888" stroke="yellow" />
<line x1="516.069676" y1="230.848888" x2="513.890783" y2="205.944021" stroke="yellow" />
<line x1="513.890783" y1="205.944021" x2="494.739672" y2="189.874331" stroke="yellow" />
<line x1="494.739672" y1="189.874331" x2="469.834804" y2="192.053224" stroke="yellow" />
<line x1="469.834804" y1="192.053224" x2="453.765114" y2="211.204335" stroke="yellow" />
<line x1="453.765114" y1="211.204335" x2="455.944007" y2="236.109203" stroke="yellow" />
<line x1="455.944007" y1="236.109203" x2="475.095118" y2="252.178893" stroke="yellow" />
<line x1="475.095118" y1="252.178893" x2="499.999986" y2="249.999999" stroke="yellow" />
<line x1="499.999986" y1="249.999999" x2="517.677655" y2="232.322330" stroke="blue" />
<line x1="517.677655" y1="232.322330" x2="517.677655" y2="207.322330" stroke="blue" />
<line x1="517.677655" y1="207.322330" x2="499.999986" y2="189.644660" stroke="blue" />
<line x1="499.999986" y1="189.644660" x2="474.999986" y2="189.644660" stroke="blue" />
<line x1="474.999986" y1="189.644660" x2="457.322316" y2="207.322330" stroke="blue" />
<line x1="457.322316" y1="207.322330" x2="457.322316" y2="232.322330" stroke="blue" />
<line x1="457.322316" y1="232.322330" x2="474.999986" y2="249.999999" stroke="blue" />
<line x1="474.999986" y1="249.999999" x2="499.999986" y2="249.999999" stroke="blue" />
<line x1="499.999986" y1="249.999999" x2="519.151097" y2="233.930309" stroke="black" />
<line x1="519.151097" y1="233.930309" x2="521.329990" y2="209.025442" stroke="black" />
<line x1="521.329990" y1="209.025442" x2="505.260300" y2="189.874331" stroke="black" />
<line x1="505.260300" y1="189.874331" x2="480.355433" y2="187.695437" stroke="black" />
<line x1="480.355433" y1="187.695437" x2="461.204322" y2="203.765127" stroke="black" />
<line x1="461.204322" y1="203.765127" x2="459.025428" y2="228.669995" stroke="black" />
<line x1="459.025428" y1="228.669995" x2="475.095118" y2="247.821106" stroke="black" />
<line x1="475.095118" y1="247.821106" x2="499.999985" y2="249.999999" stroke="black" />
<line x1="499.999985" y1="249.999999" x2="520.478787" y2="235.660589" stroke="red" />
<line x1="520.478787" y1="235.660589" x2="524.819991" y2="211.040395" stroke="red" />
<line x1="524.819991" y1="211.040395" x2="510.480580" y2="190.561594" stroke="red" />
<line x1="510.480580" y1="190.561594" x2="485.860386" y2="186.220389" stroke="red" />
<line x1="485.860386" y1="186.220389" x2="465.381585" y2="200.559800" stroke="red" />
<line x1="465.381585" y1="200.559800" x2="461.040381" y2="225.179994" stroke="red" />
<line x1="461.040381" y1="225.179994" x2="475.379791" y2="245.658795" stroke="red" />
<line x1="475.379791" y1="245.658795" x2="499.999985" y2="249.999999" stroke="red" />
<line x1="499.999985" y1="249.999999" x2="521.650620" y2="237.500000" stroke="cyan" />
<line x1="521.650620" y1="237.500000" x2="528.121096" y2="213.351854" stroke="cyan" />
<line x1="528.121096" y1="213.351854" x2="515.621096" y2="191.701219" stroke="cyan" />
<line x1="515.621096" y1="191.701219" x2="491.472951" y2="185.230743" stroke="cyan" />
<line x1="491.472951" y1="185.230743" x2="469.822316" y2="197.730742" stroke="cyan" />
<line x1="469.822316" y1="197.730742" x2="463.351839" y2="221.878888" stroke="cyan" />
<line x1="463.351839" y1="221.878888" x2="475.851839" y2="243.529523" stroke="cyan" />
<line x1="475.851839" y1="243.529523" x2="499.999985" y2="250.000000" stroke="cyan" />
<line x1="499.999985" y1="250.000000" x2="522.657680" y2="239.434543" stroke="purple" />
<line x1="522.657680" y1="239.434543" x2="531.208183" y2="215.942227" stroke="purple" />
<line x1="531.208183" y1="215.942227" x2="520.642727" y2="193.284533" stroke="purple" />
<line x1="520.642727" y1="193.284533" x2="497.150411" y2="184.734029" stroke="purple" />
<line x1="497.150411" y1="184.734029" x2="474.492717" y2="195.299486" stroke="purple" />
<line x1="474.492717" y1="195.299486" x2="465.942213" y2="218.791801" stroke="purple" />
<line x1="465.942213" y1="218.791801" x2="476.507669" y2="241.449496" stroke="purple" />
<line x1="476.507669" y1="241.449496" x2="499.999985" y2="250.000000" stroke="purple" />
<line x1="499.999985" y1="250.000000" x2="523.492300" y2="241.449496" stroke="orange" />
<line x1="523.492300" y1="241.449496" x2="534.057757" y2="218.791801" stroke="orange" />
<line x1="534.057757" y1="218.791801" x2="525.507253" y2="195.299486" stroke="orange" />
<line x1="525.507253" y1="195.299486" x2="502.849559" y2="184.734029" stroke="orange" />
<line x1="502.849559" y1="184.734029" x2="479.357243" y2="193.284533" stroke="orange" />
<line x1="479.357243" y1="193.284533" x2="468.791786" y2="215.942227" stroke="orange" />
<line x1="468.791786" y1="215.942227" x2="477.342290" y2="239.434543" stroke="orange" />
<line x1="477.342290" y1="239.434543" x2="499.999984" y2="250.000000" stroke="orange" />
<line x1="499.999984" y1="250.000000" x2="524.148130" y2="243.529523" stroke="green" />
<line x1="524.148130" y1="243.529523" x2="536.648130" y2="221.878888" stroke="green" />
<line x1="536.648130" y1="221.878888" x2="530.177654" y2="197.730743" stroke="green" />
<line x1="530.177654" y1="197.730743" x2="508.527019" y2="185.230743" stroke="green" />
<line x1="508.527019" y1="185.230743" x2="484.378873" y2="191.701219" stroke="green" />
<line x1="484.378873" y1="191.701219" x2="471.878873" y2="213.351854" stroke="green" />
<line x1="471.878873" y1="213.351854" x2="478.349349" y2="237.499999" stroke="green" />
<line x1="478.349349" y1="237.499999" x2="499.999984" y2="249.999999" stroke="green" />
<line x1="499.999984" y1="249.999999" x2="524.620178" y2="245.658795" stroke="yellow" />
<line x1="524.620178" y1="245.658795" x2="538.959589" y2="225.179994" stroke="yellow" />
<line x1="538.959589" y1="225.179994" x2="534.618385" y2="200.559800" stroke="yellow" />
<line x1="534.618385" y1="200.559800" x2="514.139584" y2="186.220389" stroke="yellow" />
<line x1="514.139584" y1="186.220389" x2="489.519390" y2="190.561594" stroke="yellow" />
<line x1="489.519390" y1="190.561594" x2="475.179979" y2="211.040395" stroke="yellow" />
<line x1="475.179979" y1="211.040395" x2="479.521183" y2="235.660588" stroke="yellow" />
<line x1="479.521183" y1="235.660588" x2="499.999984" y2="249.999999" stroke="yellow" />
<line x1="499.999984" y1="249.999999" x2="524.904851" y2="247.821106" stroke="blue" />
<line x1="524.904851" y1="247.821106" x2="540.974542" y2="228.669995" stroke="blue" />
<line x1="540.974542" y1="228.669995" x2="538.795648" y2="203.765127" stroke="blue" />
<line x1="538.795648" y1="203.765127" x2="519.644537" y2="187.695437" stroke="blue" />
<line x1="519.644537" y1="187.695437" x2="494.739670" y2="189.874331" stroke="blue" />
<line x1="494.739670" y1="189.874331" x2="478.669979" y2="209.025442" stroke="blue" />
<line x1="478.669979" y1="209.025442" x2="480.848873" y2="233.930309" stroke="blue" />
<line x1="480.848873" y1="233.930309" x2="499.999984" y2="249.999999" stroke="blue" />
<line x1="499.999984" y1="249.999999" x2="524.999984" y2="249.999999" stroke="black" />
<line x1="524.999984" y1="249.999999" x2="542.677653" y2="232.322330" stroke="black" />
<line x1="542.677653" y1="232.322330" x2="542.677653" y2="207.322330" stroke="black" />
<line x1="542.677653" y1="207.322330" x2="524.999984" y2="189.644660" stroke="black" />
<line x1="524.999984" y1="189.644660" x2="499.999984" y2="189.644660" stroke="black" />
<line x1="499.999984" y1="189.644660" x2="482.322314" y2="207.322330" stroke="black" />
<line x1="482.322314" y1="207.322330" x2="482.322314" y2="232.322330" stroke="black" />
<line x1="482.322314" y1="232.322330" x2="499.999984" y2="249.999999" stroke="black" />
<line x1="800" y1="450" x2="810" y2="450" stroke="black" />
<line x1="805" y1="450" x2="805" y2="465" stroke="black" />
<line x1="812" y1="450" x2="822" y2="450" stroke="black" />
<line x1="812" y1="450" x2="812" y2="465" stroke="black" />
<line x1="812" y1="457" x2="822" y2="457" stroke="black" />
<line x1="812" y1="465" x2="822" y2="465" stroke="black" />
<line x1="824" y1="450" x2="824" y2="465" stroke="black" />
<line x1="824" y1="450" x2="831" y2="452" stroke="black" />
<line x1="831" y1="452" x2="834" y2="455" stroke="black" />
<line x1="834" y1="455" x2="834" y2="460" stroke="black" />
<line x1="834" y1="460" x2="831" y2="463" stroke="black" />
<line x1="831" y1="463" x2="824" y2="465" stroke="black" />
</svg>
